<?xml version="1.0" encoding="UTF-8"?>
<svg xmlns="http://www.w3.org/2000/svg" xmlns:xlink="http://www.w3.org/1999/xlink" width="465.2pt" height="522pt" viewBox="0 0 465.2 522" version="1.1">
<g id="surface1">
<path style=" stroke:none;fill-rule:evenodd;fill:rgb(100%,100%,100%);fill-opacity:1;" d="M 225.34375 519.832031 C 212.027344 515.90625 177.085938 503.8125 140.175781 476.414063 C 90.847656 439.789063 28.785156 376.953125 13.261719 285.53125 C 1.941406 218.863281 3.703125 157.183594 18.492188 102.203125 C 30.628906 57.117188 48.164063 28.433594 57.585938 13.023438 L 65.558594 -0.015625 L 399.808594 -0.015625 L 407.773438 13.023438 C 417.195313 28.433594 434.734375 57.113281 446.867188 102.203125 C 461.65625 157.179688 463.421875 218.859375 452.105469 285.527344 C 436.585938 376.882813 374.578125 439.71875 325.285156 476.335938 C 288.335938 503.789063 253.351563 515.898438 240.019531 519.832031 L 232.683594 521.996094 Z M 225.34375 519.832031 "/>
<path style=" stroke:none;fill-rule:evenodd;fill:rgb(100%,100%,100%);fill-opacity:1;" d="M 385.253906 25.933594 L 80.105469 25.933594 C 65.769531 49.398438 13.140625 129.855469 38.847656 281.1875 C 51.460938 355.519531 99.894531 414.195313 155.644531 455.578125 C 189.476563 480.695313 221.359375 491.605469 232.683594 494.941406 C 244.019531 491.601563 275.945313 480.667969 309.8125 455.511719 C 365.511719 414.128906 413.90625 355.476563 426.523438 281.1875 C 452.21875 129.855469 399.597656 49.398438 385.253906 25.933594 Z M 385.253906 25.933594 "/>
<path style=" stroke:none;fill-rule:evenodd;fill:rgb(85.15625%,16.479492%,10.594177%);fill-opacity:1;" d="M 396.351563 19.152344 L 392.546875 12.933594 L 72.8125 12.933594 L 69.011719 19.152344 C 51.578125 47.679688 0.0664063 130.515625 26.019531 283.363281 C 39.222656 361.117188 89.367188 422.570313 147.894531 466.023438 C 183.144531 492.1875 216.359375 503.683594 229 507.414063 L 232.683594 508.496094 L 236.359375 507.414063 C 249.019531 503.679688 282.285156 492.164063 317.566406 465.949219 C 376.042969 422.496094 426.148438 361.066406 439.339844 283.363281 C 465.296875 130.507813 413.789063 47.671875 396.351563 19.152344 Z M 426.523438 281.1875 C 413.90625 355.476563 365.511719 414.128906 309.8125 455.511719 C 275.945313 480.667969 244.019531 491.601563 232.683594 494.941406 C 221.359375 491.605469 189.476563 480.695313 155.644531 455.578125 C 99.894531 414.195313 51.460938 355.519531 38.847656 281.1875 C 13.140625 129.855469 65.769531 49.398438 80.105469 25.933594 L 385.253906 25.933594 C 399.597656 49.398438 452.21875 129.855469 426.523438 281.1875 Z M 426.523438 281.1875 "/>
<path style=" stroke:none;fill-rule:evenodd;fill:rgb(85.15625%,16.479492%,10.594177%);fill-opacity:1;" d="M 90.386719 109.128906 L 77.335938 109.128906 L 77.335938 103.339844 C 79.492188 102.929688 81.234375 100.339844 82.570313 95.574219 L 82.660156 95.238281 L 91.78125 61.996094 L 98.808594 61.996094 L 107.722656 96.9375 C 108.398438 99.546875 109.023438 101.230469 109.589844 101.976563 C 110.160156 102.65625 110.996094 103.121094 112.101563 103.371094 L 112.101563 109.128906 L 96.742188 109.128906 L 96.742188 103.480469 L 97.058594 103.480469 C 98.167969 103.480469 98.964844 103.273438 99.453125 102.863281 C 99.9375 102.453125 100.175781 101.746094 100.175781 100.746094 L 100.109375 99.726563 L 99.90625 98.675781 L 98.292969 92.164063 L 88.359375 92.164063 L 87.042969 98.640625 L 86.882813 99.558594 L 86.859375 100.203125 C 86.859375 101.273438 87.136719 102.078125 87.691406 102.621094 C 87.972656 102.894531 88.34375 103.105469 88.792969 103.253906 C 89.238281 103.398438 89.769531 103.480469 90.386719 103.480469 Z M 90.027344 86.382813 L 96.699219 86.382813 L 93.625 72.476563 Z M 90.027344 86.382813 "/>
<path style=" stroke:none;fill-rule:evenodd;fill:rgb(85.15625%,16.479492%,10.594177%);fill-opacity:1;" d="M 140.210938 109.128906 L 115.035156 109.128906 L 115.035156 103.339844 C 115.730469 103.339844 116.3125 103.203125 116.785156 102.929688 C 117.261719 102.65625 117.625 102.269531 117.882813 101.773438 C 118.382813 100.773438 118.628906 98.390625 118.628906 94.621094 L 118.628906 76.507813 C 118.628906 72.738281 118.382813 70.351563 117.886719 69.355469 C 117.347656 68.285156 116.398438 67.753906 115.035156 67.753906 L 115.035156 61.996094 L 130.351563 61.996094 L 130.351563 67.753906 C 129.003906 67.753906 128.046875 68.300781 127.476563 69.390625 C 126.980469 70.386719 126.734375 72.761719 126.734375 76.507813 L 126.734375 96.695313 C 126.734375 99.242188 126.972656 100.882813 127.449219 101.617188 C 127.933594 102.355469 128.902344 102.726563 130.351563 102.726563 C 132.492188 102.726563 134.558594 101.644531 136.546875 99.472656 C 138.539063 97.308594 140.28125 94.226563 141.761719 90.230469 L 144.789063 92.679688 Z M 140.210938 109.128906 "/>
<path style=" stroke:none;fill-rule:evenodd;fill:rgb(85.15625%,16.479492%,10.594177%);fill-opacity:1;" d="M 159.246094 68.402344 L 158.613281 68.402344 C 156.746094 68.402344 155.144531 69.152344 153.820313 70.664063 C 152.496094 72.179688 151.273438 74.679688 150.148438 78.175781 L 147.117188 76.402344 L 150.550781 61.996094 L 176.046875 61.996094 L 179.507813 76.402344 L 176.449219 78.175781 C 175.34375 74.71875 174.121094 72.234375 172.789063 70.699219 C 171.457031 69.164063 169.859375 68.402344 168 68.402344 L 167.351563 68.402344 L 167.351563 94.621094 C 167.351563 98.300781 167.601563 100.671875 168.09375 101.738281 C 168.347656 102.238281 168.722656 102.628906 169.203125 102.910156 C 169.691406 103.199219 170.28125 103.339844 170.96875 103.339844 L 170.988281 109.128906 L 155.628906 109.128906 L 155.628906 103.339844 C 157.003906 103.339844 157.949219 102.816406 158.46875 101.773438 C 158.988281 100.734375 159.246094 98.34375 159.246094 94.621094 Z M 159.246094 68.402344 "/>
<path style=" stroke:none;fill-rule:evenodd;fill:rgb(85.15625%,16.479492%,10.594177%);fill-opacity:1;" d="M 198.109375 61.996094 L 198.109375 67.753906 C 196.761719 67.753906 195.804688 68.300781 195.234375 69.390625 C 194.742188 70.386719 194.492188 72.761719 194.492188 76.507813 L 194.492188 94.621094 C 194.492188 98.300781 194.742188 100.671875 195.234375 101.738281 C 195.488281 102.238281 195.863281 102.628906 196.34375 102.910156 C 196.828125 103.199219 197.421875 103.339844 198.109375 103.339844 L 198.109375 109.128906 L 182.789063 109.128906 L 182.816406 103.339844 C 183.503906 103.339844 184.082031 103.203125 184.550781 102.929688 C 185.027344 102.65625 185.390625 102.269531 185.648438 101.773438 C 186.136719 100.773438 186.382813 98.390625 186.382813 94.621094 L 186.382813 76.507813 C 186.382813 72.738281 186.136719 70.351563 185.648438 69.355469 C 185.113281 68.285156 184.164063 67.753906 182.816406 67.753906 L 182.816406 61.996094 Z M 198.109375 61.996094 "/>
<path style=" stroke:none;fill-rule:evenodd;fill:rgb(85.15625%,16.479492%,10.594177%);fill-opacity:1;" d="M 202.859375 109.128906 L 202.859375 103.371094 C 204.261719 103.371094 205.21875 102.84375 205.730469 101.789063 C 206.238281 100.734375 206.496094 98.34375 206.496094 94.621094 L 206.496094 76.507813 C 206.496094 72.785156 206.246094 70.414063 205.753906 69.390625 C 205.496094 68.867188 205.132813 68.464844 204.652344 68.175781 C 204.171875 67.902344 203.574219 67.753906 202.859375 67.753906 L 202.859375 61.996094 L 216.019531 61.996094 L 226.730469 88.828125 L 226.730469 76.335938 C 226.730469 72.613281 226.472656 70.230469 225.960938 69.1875 C 225.441406 68.140625 224.484375 67.617188 223.09375 67.617188 L 223.09375 61.996094 L 234.589844 61.996094 L 234.589844 67.753906 C 233.214844 67.753906 232.277344 68.261719 231.773438 69.273438 C 231.269531 70.285156 231.023438 72.695313 231.023438 76.507813 L 231.023438 109.128906 L 225.269531 109.128906 L 210.761719 72.929688 L 210.761719 94.757813 C 210.761719 98.503906 211.019531 100.894531 211.527344 101.925781 C 212.035156 102.960938 212.976563 103.480469 214.355469 103.480469 L 214.355469 109.128906 Z M 202.859375 109.128906 "/>
<path style=" stroke:none;fill-rule:evenodd;fill:rgb(85.15625%,16.479492%,10.594177%);fill-opacity:1;" d="M 239.429688 85.5625 C 239.429688 78.203125 240.976563 72.265625 244.066406 67.738281 C 247.15625 63.203125 251.207031 60.941406 256.207031 60.941406 C 261.226563 60.941406 265.28125 63.203125 268.390625 67.738281 C 271.496094 72.265625 273.054688 78.203125 273.054688 85.5625 C 273.054688 92.898438 271.492188 98.835938 268.378906 103.371094 C 265.265625 107.914063 261.210938 110.183594 256.207031 110.183594 C 251.191406 110.183594 247.136719 107.914063 244.058594 103.386719 C 240.972656 98.859375 239.429688 92.914063 239.429688 85.5625 Z M 248.121094 85.5625 C 248.121094 91.535156 248.820313 96.144531 250.222656 99.390625 C 251.621094 102.632813 253.617188 104.261719 256.207031 104.261719 C 258.796875 104.261719 260.804688 102.621094 262.230469 99.355469 C 263.648438 96.078125 264.359375 91.488281 264.359375 85.5625 C 264.359375 79.613281 263.648438 75.011719 262.230469 71.753906 C 260.804688 68.496094 258.796875 66.867188 256.207031 66.867188 C 253.648438 66.867188 251.65625 68.496094 250.246094 71.753906 C 248.828125 75.011719 248.121094 79.613281 248.121094 85.5625 Z M 248.121094 85.5625 "/>
<path style=" stroke:none;fill-rule:evenodd;fill:rgb(85.15625%,16.479492%,10.594177%);fill-opacity:1;" d="M 278.046875 109.128906 L 278.046875 103.371094 C 279.453125 103.371094 280.414063 102.84375 280.921875 101.789063 C 281.433594 100.734375 281.6875 98.335938 281.6875 94.605469 L 281.6875 76.453125 C 281.6875 72.726563 281.441406 70.347656 280.949219 69.324219 C 280.691406 68.800781 280.320313 68.398438 279.84375 68.117188 C 279.363281 67.828125 278.765625 67.6875 278.046875 67.6875 L 278.046875 61.996094 L 295.292969 61.996094 C 299.441406 61.996094 302.546875 63.066406 304.617188 65.199219 C 306.683594 67.335938 307.714844 70.535156 307.714844 74.800781 C 307.714844 77.9375 307.160156 80.519531 306.042969 82.554688 C 304.929688 84.585938 303.1875 86.164063 300.820313 87.304688 L 306.839844 99.078125 C 307.617188 100.558594 308.367188 101.617188 309.089844 102.246094 C 309.804688 102.886719 310.695313 103.289063 311.757813 103.480469 L 311.757813 109.128906 L 301.964844 109.128906 L 292.441406 88.695313 L 289.773438 88.695313 L 289.773438 94.636719 C 289.773438 98.324219 290.019531 100.699219 290.515625 101.769531 C 290.765625 102.269531 291.136719 102.660156 291.628906 102.949219 C 292.109375 103.230469 292.707031 103.371094 293.40625 103.371094 L 293.40625 109.128906 Z M 289.773438 82.429688 C 290.019531 82.429688 290.226563 82.429688 290.382813 82.429688 L 291.328125 82.429688 C 294.011719 82.429688 296.039063 81.820313 297.402344 80.589844 C 298.769531 79.367188 299.453125 77.515625 299.453125 75.039063 C 299.453125 72.8125 298.878906 71.035156 297.746094 69.699219 C 296.605469 68.355469 295.074219 67.6875 293.140625 67.6875 C 291.851563 67.6875 290.960938 68.078125 290.46875 68.847656 C 290.003906 69.628906 289.773438 71.253906 289.773438 73.738281 Z M 289.773438 82.429688 "/>
<path style=" stroke:none;fill-rule:evenodd;fill:rgb(85.15625%,16.479492%,10.594177%);fill-opacity:1;" d="M 314.929688 109.128906 L 314.929688 103.371094 C 316.34375 103.371094 317.300781 102.84375 317.8125 101.789063 C 318.316406 100.734375 318.574219 98.335938 318.574219 94.605469 L 318.574219 76.453125 C 318.574219 72.726563 318.328125 70.347656 317.832031 69.324219 C 317.574219 68.800781 317.210938 68.398438 316.734375 68.117188 C 316.25 67.828125 315.652344 67.6875 314.929688 67.6875 L 314.929688 61.996094 L 330.589844 61.996094 C 336.515625 61.996094 341.066406 64.027344 344.238281 68.078125 C 347.402344 72.128906 348.988281 77.953125 348.988281 85.5625 C 348.988281 93.191406 347.402344 99.023438 344.246094 103.0625 C 341.085938 107.109375 336.53125 109.128906 330.589844 109.128906 Z M 326.660156 73.714844 L 326.660156 97.480469 C 326.660156 100.046875 326.898438 101.6875 327.386719 102.402344 C 327.878906 103.117188 328.847656 103.480469 330.296875 103.480469 C 333.441406 103.480469 335.921875 101.878906 337.746094 98.691406 C 339.5625 95.503906 340.46875 91.121094 340.46875 85.5625 C 340.46875 79.980469 339.566406 75.605469 337.769531 72.433594 C 335.960938 69.273438 333.472656 67.6875 330.296875 67.6875 C 328.832031 67.6875 327.851563 68.046875 327.375 68.777344 C 326.898438 69.460938 326.660156 71.101563 326.660156 73.714844 Z M 326.660156 73.714844 "/>
<path style=" stroke:none;fill-rule:evenodd;fill:rgb(85.15625%,16.479492%,10.594177%);fill-opacity:1;" d="M 357.527344 76.507813 C 357.527344 72.738281 357.273438 70.351563 356.765625 69.355469 C 356.507813 68.855469 356.140625 68.464844 355.652344 68.175781 C 355.167969 67.902344 354.578125 67.753906 353.886719 67.753906 L 353.886719 61.996094 L 369.074219 61.996094 L 369.074219 67.617188 C 367.710938 67.617188 366.761719 68.160156 366.230469 69.238281 C 365.695313 70.316406 365.433594 72.683594 365.433594 76.335938 L 365.433594 93.769531 C 365.433594 96.8125 365.929688 99.128906 366.914063 100.734375 C 367.90625 102.335938 369.355469 103.128906 371.269531 103.128906 C 373.519531 103.128906 375.234375 102.203125 376.425781 100.355469 C 377.609375 98.511719 378.210938 95.804688 378.210938 92.238281 L 378.210938 76.335938 C 378.210938 72.613281 377.953125 70.230469 377.441406 69.1875 C 376.921875 68.140625 375.976563 67.617188 374.597656 67.617188 L 374.597656 61.996094 L 386.097656 61.996094 L 386.097656 67.753906 C 385.390625 67.753906 384.800781 67.894531 384.320313 68.164063 C 383.84375 68.4375 383.46875 68.84375 383.203125 69.390625 C 382.703125 70.414063 382.457031 72.726563 382.457031 76.335938 L 382.457031 91.011719 C 382.457031 94.851563 382.25 97.816406 381.839844 99.914063 C 381.429688 102.015625 380.738281 103.804688 379.785156 105.28125 C 378.753906 106.914063 377.433594 108.140625 375.816406 108.953125 C 374.210938 109.773438 372.339844 110.183594 370.214844 110.183594 C 365.980469 110.183594 362.804688 108.835938 360.691406 106.148438 C 358.585938 103.460938 357.527344 99.410156 357.527344 94.007813 Z M 357.527344 76.507813 "/>
<path style=" stroke:none;fill-rule:evenodd;fill:rgb(13.330078%,21.166992%,40.795898%);fill-opacity:1;" d="M 303.628906 401.203125 L 295.84375 368.367188 L 273.859375 383.554688 L 280.964844 413.632813 L 269.96875 417.789063 L 273.167969 430.296875 C 292.800781 424.074219 310.460938 413.429688 325.054688 399.546875 L 317.753906 388.753906 Z M 303.628906 401.203125 "/>
<path style=" stroke:none;fill-rule:evenodd;fill:rgb(85.15625%,16.479492%,10.594177%);fill-opacity:1;" d="M 204.96875 365.726563 L 205.765625 363.578125 L 206.1875 363.734375 C 207.476563 364.210938 208.511719 364.285156 209.28125 363.953125 C 210.050781 363.617188 210.582031 363.105469 210.890625 362.398438 L 213.34375 363.304688 L 207.574219 378.894531 L 204.597656 377.789063 L 208.566406 367.058594 Z M 204.96875 365.726563 "/>
<path style=" stroke:none;fill-rule:evenodd;fill:rgb(85.15625%,16.479492%,10.594177%);fill-opacity:1;" d="M 216.734375 377.65625 L 219.855469 378.160156 L 219.855469 378.179688 C 219.832031 379.28125 220.363281 379.914063 221.425781 380.097656 C 221.878906 380.164063 222.34375 380.078125 222.808594 379.84375 C 223.234375 379.605469 223.625 379.164063 223.980469 378.535156 C 224.351563 377.878906 224.617188 377.015625 224.792969 375.941406 L 224.75 375.882813 C 223.996094 376.714844 222.917969 377.015625 221.503906 376.789063 C 220.527344 376.632813 219.707031 376.261719 219.035156 375.679688 C 218.390625 375.117188 217.9375 374.402344 217.675781 373.539063 C 217.414063 372.675781 217.363281 371.785156 217.507813 370.878906 C 217.71875 369.578125 218.121094 368.523438 218.730469 367.710938 C 219.335938 366.914063 220.082031 366.359375 220.949219 366.054688 C 221.835938 365.753906 222.8125 365.6875 223.882813 365.859375 C 225.160156 366.0625 226.144531 366.53125 226.828125 367.257813 C 227.519531 368.011719 227.976563 368.867188 228.1875 369.820313 C 228.382813 370.8125 228.457031 371.726563 228.421875 372.566406 C 228.367188 373.433594 228.269531 374.308594 228.128906 375.199219 C 227.8125 377.175781 227.277344 378.757813 226.542969 379.941406 C 225.773438 381.128906 224.910156 381.921875 223.972656 382.324219 C 223 382.722656 222.003906 382.84375 220.992188 382.679688 C 220.082031 382.535156 219.300781 382.234375 218.65625 381.785156 C 217.96875 381.300781 217.476563 380.710938 217.167969 380.027344 C 216.835938 379.324219 216.695313 378.535156 216.734375 377.65625 Z M 220.71875 370.914063 C 220.398438 372.921875 221.023438 374.050781 222.589844 374.304688 C 223.199219 374.402344 223.773438 374.261719 224.316406 373.871094 C 224.851563 373.46875 225.199219 372.820313 225.34375 371.921875 C 225.496094 370.964844 225.414063 370.1875 225.101563 369.585938 C 224.785156 368.996094 224.234375 368.644531 223.429688 368.511719 C 222.878906 368.425781 222.328125 368.539063 221.785156 368.863281 C 221.238281 369.210938 220.882813 369.890625 220.71875 370.914063 Z M 220.71875 370.914063 "/>
<path style=" stroke:none;fill-rule:evenodd;fill:rgb(85.15625%,16.479492%,10.594177%);fill-opacity:1;" d="M 234.988281 372.652344 L 231.902344 372.769531 C 231.84375 371.140625 232.109375 369.871094 232.691406 368.964844 C 233.285156 368.066406 233.960938 367.46875 234.722656 367.183594 C 235.515625 366.886719 236.261719 366.726563 236.957031 366.703125 C 237.75 366.671875 238.484375 366.761719 239.148438 366.972656 C 239.789063 367.152344 240.382813 367.46875 240.929688 367.914063 C 241.441406 368.320313 241.855469 368.855469 242.167969 369.511719 C 242.476563 370.140625 242.648438 370.886719 242.679688 371.738281 C 242.710938 372.613281 242.582031 373.40625 242.289063 374.09375 C 242 374.796875 241.625 375.371094 241.171875 375.820313 C 240.683594 376.339844 240.136719 376.820313 239.527344 377.269531 C 238.644531 377.949219 238.132813 378.351563 237.996094 378.46875 C 237.816406 378.601563 237.523438 378.839844 237.113281 379.183594 C 236.832031 379.425781 236.601563 379.65625 236.4375 379.863281 C 236.25 380.070313 236.113281 380.269531 236.023438 380.46875 L 243.015625 380.203125 L 243.121094 383.109375 L 232.113281 383.515625 C 232.128906 382.578125 232.207031 381.828125 232.332031 381.28125 C 232.460938 380.675781 232.769531 379.988281 233.277344 379.210938 C 233.75 378.476563 234.523438 377.664063 235.617188 376.78125 C 236.527344 376.039063 237.355469 375.339844 238.113281 374.675781 C 238.542969 374.289063 238.894531 373.839844 239.175781 373.339844 C 239.417969 372.878906 239.527344 372.34375 239.5 371.738281 C 239.480469 371.113281 239.265625 370.570313 238.871094 370.121094 C 238.476563 369.652344 237.910156 369.425781 237.1875 369.453125 C 236.523438 369.480469 236.023438 369.65625 235.6875 369.984375 C 235.339844 370.339844 235.140625 370.730469 235.09375 371.15625 C 235.003906 371.589844 234.972656 372.089844 234.988281 372.652344 Z M 234.988281 372.652344 "/>
<path style=" stroke:none;fill-rule:evenodd;fill:rgb(85.15625%,16.479492%,10.594177%);fill-opacity:1;" d="M 251.046875 374.335938 L 250.503906 372.0625 L 250.996094 371.945313 C 251.71875 371.773438 252.304688 371.492188 252.75 371.089844 C 253.195313 370.691406 253.3125 370.039063 253.097656 369.128906 C 253.027344 368.828125 252.902344 368.550781 252.730469 368.28125 C 252.550781 368.011719 252.285156 367.785156 251.9375 367.601563 C 251.601563 367.425781 251.167969 367.40625 250.632813 367.535156 C 249.21875 367.867188 248.722656 368.914063 249.148438 370.679688 L 246.28125 371.363281 C 246.039063 370.355469 246.011719 369.402344 246.199219 368.519531 C 246.398438 367.644531 246.832031 366.898438 247.515625 366.28125 C 248.1875 365.652344 249.097656 365.203125 250.222656 364.929688 C 250.832031 364.785156 251.417969 364.722656 251.980469 364.753906 C 252.550781 364.773438 253.117188 364.90625 253.710938 365.15625 C 254.277344 365.378906 254.785156 365.753906 255.21875 366.289063 C 255.652344 366.796875 255.964844 367.453125 256.160156 368.277344 C 256.347656 369.0625 256.320313 369.746094 256.070313 370.34375 C 255.828125 370.929688 255.480469 371.425781 255.023438 371.800781 L 255.03125 371.84375 C 255.328125 371.863281 255.691406 371.953125 256.121094 372.117188 C 256.535156 372.273438 256.953125 372.597656 257.386719 373.085938 C 257.796875 373.558594 258.101563 374.203125 258.296875 375.035156 C 258.53125 376.03125 258.523438 376.980469 258.277344 377.878906 C 258 378.808594 257.503906 379.585938 256.796875 380.203125 C 256.074219 380.847656 255.207031 381.285156 254.191406 381.527344 C 253.636719 381.664063 253.078125 381.738281 252.523438 381.761719 C 251.914063 381.785156 251.277344 381.6875 250.613281 381.472656 C 249.941406 381.253906 249.308594 380.816406 248.738281 380.164063 C 248.160156 379.515625 247.734375 378.605469 247.453125 377.433594 L 250.476563 376.710938 L 250.460938 376.742188 C 250.628906 377.449219 250.941406 378.054688 251.386719 378.566406 C 251.859375 379.078125 252.535156 379.226563 253.433594 379.015625 C 254.101563 378.855469 254.59375 378.488281 254.917969 377.914063 C 255.253906 377.351563 255.316406 376.648438 255.113281 375.800781 C 254.957031 375.121094 254.65625 374.65625 254.214844 374.394531 C 253.769531 374.152344 253.292969 374.039063 252.789063 374.066406 C 252.289063 374.089844 251.707031 374.179688 251.046875 374.335938 Z M 251.046875 374.335938 "/>
<path style=" stroke:none;fill-rule:evenodd;fill:rgb(13.330078%,21.166992%,40.795898%);fill-opacity:1;" d="M 203.367188 412.453125 L 198.09375 431.046875 L 193.902344 429.859375 L 199.175781 411.265625 Z M 200.207031 408.367188 C 200.515625 407.289063 201.597656 406.703125 202.675781 407.011719 C 203.726563 407.308594 204.289063 408.367188 203.980469 409.441406 C 203.699219 410.429688 202.652344 411.089844 201.574219 410.785156 C 200.503906 410.472656 199.925781 409.359375 200.207031 408.367188 Z M 200.207031 408.367188 "/>
<path style=" stroke:none;fill-rule:evenodd;fill:rgb(13.330078%,21.166992%,40.795898%);fill-opacity:1;" d="M 201.257813 429.628906 L 212.71875 418.269531 L 212.738281 418.152344 L 204.5 416.632813 L 205.15625 413.078125 L 218.953125 415.628906 L 218.492188 418.109375 L 207.261719 429.335938 L 207.238281 429.449219 L 216.238281 431.113281 L 215.585938 434.664063 L 200.832031 431.9375 Z M 201.257813 429.628906 "/>
<path style=" stroke:none;fill-rule:evenodd;fill:rgb(13.330078%,21.166992%,40.795898%);fill-opacity:1;" d="M 235.980469 428.28125 C 235.949219 425.957031 235.929688 423.144531 235.996094 420.339844 L 235.9375 420.335938 C 235.246094 422.789063 234.378906 425.519531 233.578125 427.765625 L 231.050781 435.246094 L 227.640625 435.164063 L 225.753906 427.664063 C 225.175781 425.355469 224.609375 422.597656 224.183594 420.058594 L 224.125 420.058594 C 223.980469 422.664063 223.789063 425.640625 223.621094 428.042969 L 223.074219 435.378906 L 219.035156 435.285156 L 220.71875 415.992188 L 226.542969 416.128906 L 228.28125 422.621094 C 228.863281 424.871094 229.375 427.292969 229.753906 429.566406 L 229.871094 429.570313 C 230.4375 427.347656 231.15625 424.8125 231.859375 422.679688 L 234.050781 416.304688 L 239.785156 416.4375 L 240.367188 435.785156 L 236.121094 435.6875 Z M 235.980469 428.28125 "/>
<path style=" stroke:none;fill-rule:evenodd;fill:rgb(13.330078%,21.166992%,40.795898%);fill-opacity:1;" d="M 242.359375 412.796875 C 242.242188 411.6875 243.035156 410.738281 244.152344 410.621094 C 245.234375 410.515625 246.148438 411.28125 246.261719 412.394531 C 246.367188 413.421875 245.632813 414.421875 244.519531 414.535156 C 243.40625 414.652344 242.457031 413.820313 242.359375 412.796875 Z M 246.804688 415.425781 L 248.773438 434.644531 L 244.4375 435.089844 L 242.472656 415.871094 Z M 246.804688 415.425781 "/>
<path style=" stroke:none;fill-rule:evenodd;fill:rgb(13.330078%,21.166992%,40.795898%);fill-opacity:1;" d="M 249.140625 415.539063 C 250.46875 415.039063 252.457031 414.460938 254.765625 413.996094 C 257.574219 413.429688 259.625 413.453125 261.1875 414.246094 C 262.527344 414.914063 263.414063 416.144531 263.773438 417.882813 C 264.25 420.28125 262.871094 422.277344 261.359375 423.199219 L 261.371094 423.28125 C 262.808594 423.554688 263.785156 424.640625 264.613281 426.289063 C 265.640625 428.332031 266.703125 430.695313 267.214844 431.351563 L 262.828125 432.238281 C 262.433594 431.730469 261.652344 430.304688 260.644531 428.082031 C 259.628906 425.792969 258.691406 425.347656 256.910156 425.671875 L 255.644531 425.929688 L 257.148438 433.378906 L 252.902344 434.234375 Z M 255.023438 422.839844 L 256.710938 422.496094 C 258.847656 422.066406 259.898438 420.746094 259.5625 419.085938 C 259.222656 417.367188 257.851563 416.703125 255.886719 417.101563 C 254.847656 417.3125 254.273438 417.488281 253.976563 417.632813 Z M 255.023438 422.839844 "/>
<path style=" stroke:none;fill-rule:evenodd;fill:rgb(85.15625%,16.479492%,10.594177%);fill-opacity:1;" d="M 363.242188 297.246094 L 341.796875 280.855469 C 331.363281 234.453125 286.367188 199.5625 232.441406 199.5625 C 178.347656 199.5625 133.25 234.675781 122.992188 281.296875 L 102.121094 297.246094 L 121.394531 311.976563 C 127.167969 363.304688 174.683594 403.34375 232.441406 403.34375 C 290.046875 403.34375 337.449219 363.519531 343.433594 312.390625 Z M 232.4375 387.285156 C 187.882813 387.285156 151.078125 354.976563 145.253906 313.078125 L 165.964844 297.246094 L 146.617188 282.460938 C 155.480469 244.199219 190.527344 215.617188 232.4375 215.617188 C 274.46875 215.617188 309.589844 244.355469 318.332031 282.777344 L 299.40625 297.246094 L 319.671875 312.742188 C 313.996094 354.808594 277.125 387.285156 232.4375 387.285156 Z M 232.4375 387.285156 "/>
<path style=" stroke:none;fill-rule:evenodd;fill:rgb(13.330078%,21.166992%,40.795898%);fill-opacity:1;" d="M 262.019531 219.605469 L 257.957031 201.539063 C 250.429688 200.074219 242.625 199.289063 234.617188 199.289063 C 233.789063 199.289063 232.972656 199.320313 232.15625 199.335938 L 235.757813 215.367188 L 252.570313 290.21875 L 243.097656 290.21875 L 232.449219 276.289063 L 221.808594 290.21875 L 207.371094 290.21875 L 223.378906 219.230469 C 215.867188 220.109375 208.761719 221.347656 201.960938 223.945313 L 161.605469 401.109375 L 148.710938 391.152344 L 142.347656 401.4375 C 142.347656 401.4375 152.640625 410.597656 162.769531 416.859375 C 171.980469 422.546875 186.550781 428.0625 186.550781 428.0625 L 190.621094 416.132813 L 180.050781 411.335938 L 202.917969 310.074219 L 221.808594 310.074219 L 232.449219 323.996094 L 243.097656 310.074219 L 257.027344 310.074219 L 271.671875 375.121094 C 274.855469 373.476563 279.347656 371.027344 283.492188 368.277344 C 286.777344 366.101563 290.449219 362.808594 293.550781 359.8125 Z M 262.019531 219.605469 "/>
<path style=" stroke:none;fill-rule:evenodd;fill:rgb(13.330078%,21.166992%,40.795898%);fill-opacity:1;" d="M 229.972656 189.617188 L 232.15625 199.335938 C 232.972656 199.320313 233.789063 199.289063 234.617188 199.289063 C 242.625 199.289063 250.429688 200.074219 257.957031 201.539063 L 252.957031 179.265625 L 270.035156 179.265625 L 265.078125 159.421875 L 199.835938 159.421875 L 194.871094 179.265625 L 211.949219 179.265625 L 207.457031 199.28125 C 214.234375 197.6875 221.496094 197.203125 228.714844 196.800781 Z M 229.972656 189.617188 "/>
<path style=" stroke:none;fill-rule:evenodd;fill:rgb(13.330078%,21.166992%,40.795898%);fill-opacity:1;" d="M 385.253906 25.933594 L 80.105469 25.933594 C 65.769531 49.398438 13.140625 129.855469 38.847656 281.1875 C 51.460938 355.519531 99.894531 414.195313 155.644531 455.578125 C 189.476563 480.695313 221.359375 491.605469 232.683594 494.941406 C 244.019531 491.601563 275.945313 480.667969 309.8125 455.511719 C 365.511719 414.128906 413.90625 355.476563 426.523438 281.1875 C 452.21875 129.855469 399.597656 49.398438 385.253906 25.933594 Z M 87.636719 38.9375 L 377.722656 38.9375 C 385.246094 52.890625 400.398438 79.59375 410.433594 120.367188 L 54.929688 120.367188 C 64.972656 79.597656 80.117188 52.894531 87.636719 38.9375 Z M 413.707031 279.007813 C 401.664063 349.882813 354.96875 405.757813 302.058594 445.074219 C 273.132813 466.5625 245.960938 477.066406 232.683594 481.335938 C 219.414063 477.070313 192.289063 466.585938 163.398438 445.136719 C 110.429688 405.820313 63.707031 349.925781 51.664063 279.007813 C 41.714844 220.425781 44.277344 172.859375 51.597656 135.484375 L 413.769531 135.484375 C 421.085938 172.859375 423.652344 220.425781 413.707031 279.007813 Z M 413.707031 279.007813 "/>
</g>
</svg>
